 http://www.imdb.com/title/tt1299653/

User Rating:4.2/10 - 133 votes

Horror

Director:Martin Barnewitz

Cast:Erbi Ago/Darcy Fowers/Kalina Green/Claire Holt, and others.

Plot:
Messengers 2: The Scarecrow tells the story of poor John , a farmer struggling with a number of problems. His cornfield doesn't look healthy, crows are wreaking havoc everywhere in his fields, the bank wants to foreclose on his farm, no one will lend the guy more credit, his irrigation system doesn't work, and to add insult to injury, John's wife Mary may be having an affair...

Info:

General
Complete name                    : Messengers 2-The Scarecrow-AC3-5,1-DVDRip[Eng]2009.avi
Format                           : AVI
Format/Info                      : Audio Video Interleave
File size                        : 1.24 GiB
Duration                         : 1h 33mn
Overall bit rate                 : 1 887 Kbps
Writing application              : VirtualDubMod 1.5.4.1 (build 2178/release)
Writing library                  : VirtualDubMod build 2178/release

Video
Format                           : MPEG-4 Visual
Format profile                   : Simple@L3
Format settings, BVOP            : No
Format settings, QPel            : No
Format settings, GMC             : No warppoints
Format settings, Matrix          : Default
Codec ID                         : XVID
Codec ID/Hint                    : XviD
Duration                         : 1h 33mn
Bit rate                         : 1 432 Kbps
Width                            : 624 pixels
Height                           : 336 pixels
Display aspect ratio             : 1.857
Frame rate                       : 23.976 fps
Resolution                       : 24 bits
Colorimetry                      : 4:2:0
Scan type                        : Progressive
Bits/(Pixel*Frame)               : 0.285
Stream size                      : 961 MiB (76%)
Writing library                  : XviD 50

Audio
Format                           : AC-3
Format/Info                      : Audio Coding 3
Codec ID                         : 2000
Duration                         : 1h 33mn
Bit rate mode                    : Constant
Bit rate                         : 448 Kbps
Channel(s)                       : 6 channels
Channel positions                : Front: L C R, Surround: L R, LFE
Sampling rate                    : 48.0 KHz
Stream size                      : 301 MiB (24%)
Alignment                        : Split accross interleaves
Interleave, duration             : 83 ms (2.00 video frames)
Interleave, preload duration     : 500 ms
Language                         : English

Enjoy...